<svg viewBox="0 0 20 20" xmlns="http://www.w3.org/2000/svg">
<path d="M10 0C4.47715 0 0 4.47715 0 10C0 15.5228 4.47715 20 10 20C15.5228 20 20 15.5228 20 10C19.9936 4.47982 15.5202 0.00642897 10 0Z" fill="#5243C2" fill-opacity="0.15"/>
<path d="M15.7724 6.83331L10.0683 14.5741C9.93221 14.7546 9.72936 14.8729 9.50527 14.9024C9.28118 14.9318 9.05465 14.87 8.87659 14.7308L4.80325 11.4741C4.44381 11.1865 4.3856 10.6619 4.67325 10.3025C4.9609 9.94303 5.48547 9.88483 5.84492 10.1725L9.24159 12.89L14.4308 5.84748C14.6009 5.59214 14.8976 5.45096 15.2031 5.48001C15.5086 5.50906 15.7734 5.70362 15.8923 5.98646C16.0113 6.26929 15.9653 6.59463 15.7724 6.83331Z" fill="#7B72C1"/>
</svg>
